# xmcd
#
# Track frame offsets:
#	182
#	11995
#	22220
#	35225
#	47702
#	61932
#	73817
#	89122
#	103470
#	116387
#	128745
#	137802
#	149882
#	162597
#
# Disc length: 2334 seconds
#
# Revision: 1
# Processed by: cddbd v1.4PL0 Copyright (c) Steve Scherf et al.
# Submitted via: audiograbber 1.81.02
#
DISCID=e7091c0e
DTITLE=Various Artist - Philadelphia Boogie
DYEAR=1900
DGENRE=Blues
TTITLE0=Lee Brown - Bobbie Town Boogie
TTITLE1=Dossie Terry - She's Alright
TTITLE2=James Carter - Let Me Be Your Coalman
TTITLE3=Duke Groner - New Blow Top Blues
TTITLE4=Variety Chocolate Bars - Ain't Nothing To It
TTITLE5=Len McCall - Philadelphia Boogie
TTITLE6=Harry Dial - Broad Bottom Boogie
TTITLE7=Jesse Price - Creepin' and Peepin'
TTITLE8=Jesse Price - Just Before Sunrise
TTITLE9=Maxwell Davis - Welcome Home Baby
TTITLE10=Maxwell Davis - Get Out
TTITLE11=Great "Gates" - Cold Blooded Blues
TTITLE12=Great "Gates" - Come Back Home
TTITLE13=Jimme Grissom And The Blenders - Frank Bull's Boogie
EXTD=Collectables Records\nCOL-CD-5334
EXTT0=
EXTT1=
EXTT2=
EXTT3=
EXTT4=
EXTT5=
EXTT6=
EXTT7=
EXTT8=
EXTT9=
EXTT10=
EXTT11=
EXTT12=
EXTT13=
PLAYORDER=
